<svg width="142" height="142" viewBox="0 0 142 142" fill="none" xmlns="http://www.w3.org/2000/svg">
<circle cx="71" cy="71" r="71" fill="#985CFB"/>
<g filter="url(#filter0_d_50_116)">
<path d="M113.768 44.1598C108.908 35.798 86.9394 34.0243 84.459 33.7963L81.675 33.6189V85.0309C81.0315 84.5101 80.3457 84.044 79.6249 83.6373C77.0827 82.3563 74.3078 81.6039 71.4674 81.4253C68.627 81.2468 65.7798 81.6458 63.0976 82.5984C52.67 85.9684 45.9629 95.5971 48.1395 104.06C48.6246 105.85 49.4727 107.521 50.631 108.968C51.7893 110.415 53.2329 111.608 54.8719 112.473C57.6817 113.973 60.8243 114.74 64.0087 114.702C66.5714 114.7 69.1173 114.29 71.5511 113.486C80.9157 110.471 87.2431 102.413 86.8888 94.6849V50.0636C89.4198 50.3677 92.8872 50.8998 96.5571 51.6853C100.19 52.2382 103.68 53.4948 106.833 55.3848C109.364 57.0571 107.795 60.1991 107.668 60.4525C106.458 62.2914 105.049 63.991 103.467 65.5202C103.006 65.9772 102.739 66.5936 102.719 67.2423C102.699 67.891 102.929 68.5226 103.361 69.0068C103.792 69.491 104.393 69.7908 105.039 69.8446C105.685 69.8983 106.327 69.7019 106.833 69.2956C107.364 68.7129 120.905 56.4236 113.768 44.1598Z" fill="white"/>
</g>
<g filter="url(#filter1_d_50_116)">
<path d="M68.0955 36.0529C64.5994 30.037 48.7937 28.7609 47.0092 28.5968L45.0062 28.4692V65.4579C44.5433 65.0832 44.0499 64.7478 43.5313 64.4552C41.7023 63.5336 39.7059 62.9923 37.6623 62.8638C35.6188 62.7354 33.5704 63.0224 31.6406 63.7078C24.1384 66.1324 19.313 73.0598 20.879 79.1486C21.228 80.4363 21.8382 81.6382 22.6715 82.6795C23.5048 83.7208 24.5435 84.5791 25.7226 85.2009C27.7442 86.2807 30.0051 86.8325 32.2962 86.8052C34.1399 86.8036 35.9716 86.5083 37.7225 85.9301C44.4599 83.7608 49.0123 77.9636 48.7573 72.4035V40.3005C50.5783 40.5193 53.0729 40.9021 55.7133 41.4672C58.3269 41.865 60.8381 42.769 63.1062 44.1288C64.9271 45.332 63.7982 47.5925 63.7071 47.7748C62.8367 49.0978 61.823 50.3206 60.6844 51.4208C60.3532 51.7496 60.1607 52.193 60.1465 52.6598C60.1323 53.1265 60.2975 53.5809 60.6081 53.9292C60.9187 54.2776 61.3509 54.4933 61.8157 54.532C62.2805 54.5707 62.7425 54.4293 63.1062 54.1371C63.4886 53.7178 73.2306 44.8762 68.0955 36.0529Z" fill="white"/>
</g>
<defs>
<filter id="filter0_d_50_116" x="43.7295" y="33.6189" width="76.1113" height="89.085" filterUnits="userSpaceOnUse" color-interpolation-filters="sRGB">
<feFlood flood-opacity="0" result="BackgroundImageFix"/>
<feColorMatrix in="SourceAlpha" type="matrix" values="0 0 0 0 0 0 0 0 0 0 0 0 0 0 0 0 0 0 127 0" result="hardAlpha"/>
<feOffset dy="4"/>
<feGaussianBlur stdDeviation="2"/>
<feComposite in2="hardAlpha" operator="out"/>
<feColorMatrix type="matrix" values="0 0 0 0 0 0 0 0 0 0 0 0 0 0 0 0 0 0 0.25 0"/>
<feBlend mode="normal" in2="BackgroundImageFix" result="effect1_dropShadow_50_116"/>
<feBlend mode="normal" in="SourceGraphic" in2="effect1_dropShadow_50_116" result="shape"/>
</filter>
<filter id="filter1_d_50_116" x="16.584" y="28.4692" width="57.0029" height="66.3369" filterUnits="userSpaceOnUse" color-interpolation-filters="sRGB">
<feFlood flood-opacity="0" result="BackgroundImageFix"/>
<feColorMatrix in="SourceAlpha" type="matrix" values="0 0 0 0 0 0 0 0 0 0 0 0 0 0 0 0 0 0 127 0" result="hardAlpha"/>
<feOffset dy="4"/>
<feGaussianBlur stdDeviation="2"/>
<feComposite in2="hardAlpha" operator="out"/>
<feColorMatrix type="matrix" values="0 0 0 0 0 0 0 0 0 0 0 0 0 0 0 0 0 0 0.25 0"/>
<feBlend mode="normal" in2="BackgroundImageFix" result="effect1_dropShadow_50_116"/>
<feBlend mode="normal" in="SourceGraphic" in2="effect1_dropShadow_50_116" result="shape"/>
</filter>
</defs>
</svg>
