<svg width="90" height="80" viewBox="0 0 90 80" fill="none" xmlns="http://www.w3.org/2000/svg">
<path d="M87.1401 16.3944C85.7546 13.1862 83.7567 10.279 81.2584 7.83545C78.7583 5.38463 75.8105 3.437 72.5754 2.09847C69.2209 0.704978 65.6229 -0.00828799 61.9904 7.26568e-05C56.8943 7.26568e-05 51.9223 1.39556 47.6015 4.03147C46.5678 4.66202 45.5858 5.35459 44.6554 6.10919C43.7251 5.35459 42.7431 4.66202 41.7094 4.03147C37.3886 1.39556 32.4165 7.26568e-05 27.3204 7.26568e-05C23.6508 7.26568e-05 20.0949 0.702983 16.7355 2.09847C13.4897 3.44226 10.5643 5.37527 8.05245 7.83545C5.55088 10.2762 3.55257 13.1841 2.17075 16.3944C0.733921 19.7332 0 23.2788 0 26.9277C0 30.3699 0.70291 33.9568 2.09839 37.6057C3.26646 40.6551 4.94104 43.8182 7.08078 47.0123C10.4713 52.0671 15.1332 57.3389 20.9219 62.6831C30.5146 71.5418 40.0142 77.6613 40.4173 77.9094L42.8672 79.4806C43.9525 80.1731 45.348 80.1731 46.4334 79.4806L48.8832 77.9094C49.2864 77.6509 58.7757 71.5418 68.3787 62.6831C74.1673 57.3389 78.8293 52.0671 82.2198 47.0123C84.3595 43.8182 86.0444 40.6551 87.2022 37.6057C88.5976 33.9568 89.3006 30.3699 89.3006 26.9277C89.3109 23.2788 88.577 19.7332 87.1401 16.3944Z" fill="black"/>
</svg>
