<svg width="67" height="80" viewBox="0 0 67 80" fill="none" xmlns="http://www.w3.org/2000/svg">
<path d="M63.3333 80C62.4492 80 61.6014 79.6488 60.9763 79.0237C60.3511 78.3986 60 77.5507 60 76.6667L60 48.2438L11.5062 77.2687C10.3861 77.9501 9.10363 78.318 7.79271 78.3342C6.4818 78.3503 5.19061 78.014 4.05413 77.3604C1.55413 75.9437 -3.85056e-05 73.1937 -3.82446e-05 70.2083L-3.29628e-05 9.79166C-3.27011e-05 6.79791 1.55413 4.05625 4.05413 2.63958C5.19088 1.98654 6.48213 1.65072 7.793 1.66721C9.10387 1.6837 10.3863 2.0519 11.5062 2.73333L60 31.7562L60 3.33333C60 2.44928 60.3512 1.60143 60.9763 0.97631C61.6014 0.351188 62.4492 1.53865e-06 63.3333 1.61594e-06C64.2174 1.69323e-06 65.0652 0.351189 65.6903 0.97631C66.3154 1.60143 66.6666 2.44928 66.6666 3.33334L66.6666 76.6667C66.6666 77.5507 66.3154 78.3986 65.6903 79.0237C65.0652 79.6488 64.2173 80 63.3333 80V80Z" fill="black"/>
</svg>
