<svg width="70" height="80" viewBox="0 0 70 80" fill="none" xmlns="http://www.w3.org/2000/svg">
<path d="M8.03474 80C6.70001 79.9975 5.38892 79.6476 4.23041 78.9848C1.62173 77.5065 0 74.637 0 71.5218V8.4786C0 5.35471 1.62173 2.49385 4.23041 1.0156C5.4165 0.333939 6.76392 -0.0166043 8.13182 0.000604426C9.49973 0.0178132 10.8379 0.402143 12.0065 1.11342L65.8866 33.3654C67.0095 34.0695 67.9352 35.0473 68.5769 36.207C69.2186 37.3668 69.5552 38.6704 69.5552 39.9958C69.5552 41.3212 69.2186 42.6249 68.5769 43.7847C67.9352 44.9444 67.0095 45.9221 65.8866 46.6262L11.9978 78.887C10.8019 79.6099 9.43216 79.9946 8.03474 80V80Z" fill="black"/>
</svg>
