<svg width="67" height="80" viewBox="0 0 67 80" fill="none" xmlns="http://www.w3.org/2000/svg">
<path d="M3.33333 0C4.21739 0 5.06523 0.35119 5.69036 0.976311C6.31548 1.60143 6.66667 2.44928 6.66667 3.33333V31.7562L55.1604 2.73125C56.2805 2.04992 57.563 1.68197 58.8739 1.66584C60.1848 1.64971 61.476 1.98601 62.6125 2.63958C65.1125 4.05625 66.6667 6.80625 66.6667 9.79167V70.2083C66.6667 73.2021 65.1125 75.9437 62.6125 77.3604C61.4758 78.0135 60.1845 78.3493 58.8736 78.3328C57.5628 78.3163 56.2804 77.9481 55.1604 77.2667L6.66667 48.2438V76.6667C6.66667 77.5507 6.31548 78.3986 5.69036 79.0237C5.06523 79.6488 4.21739 80 3.33333 80C2.44928 80 1.60143 79.6488 0.976311 79.0237C0.35119 78.3986 0 77.5507 0 76.6667V3.33333C0 2.44928 0.35119 1.60143 0.976311 0.976311C1.60143 0.35119 2.44928 0 3.33333 0Z" fill="black"/>
</svg>
