<svg width="68" height="80" viewBox="0 0 68 80" fill="none" xmlns="http://www.w3.org/2000/svg">
<path d="M65.1857 10.3998C60.3889 2.14996 38.7037 0.399993 36.2553 0.174997L33.5072 0V50.7242C32.872 50.2103 32.1952 49.7504 31.4836 49.3492C28.9742 48.0853 26.2352 47.343 23.4314 47.1668C20.6277 46.9907 17.8173 47.3844 15.1697 48.3242C4.87669 51.6491 -1.74381 61.149 0.404727 69.4988C0.883574 71.2647 1.72075 72.913 2.86408 74.341C4.0074 75.7689 5.43238 76.946 7.05021 77.7987C9.82373 79.2794 12.9257 80.0361 16.0691 79.9987C18.5986 79.9966 21.1117 79.5915 23.514 78.7987C32.7577 75.8237 39.0035 67.8739 38.6537 60.249V16.2247C41.152 16.5247 44.5747 17.0497 48.1972 17.8247C51.7832 18.3702 55.2285 19.6099 58.3403 21.4746C60.8386 23.1246 59.2897 26.2246 59.1648 26.4746C57.9706 28.2889 56.5798 29.9657 55.0176 31.4745C54.5632 31.9254 54.299 32.5335 54.2796 33.1735C54.2601 33.8136 54.4868 34.4367 54.9129 34.9144C55.339 35.3921 55.9321 35.688 56.5698 35.741C57.2075 35.794 57.8412 35.6002 58.3403 35.1994C58.865 34.6244 72.2309 22.4996 65.1857 10.3998V10.3998Z" fill="black"/>
</svg>
