<svg width="142" height="142" viewBox="0 0 142 142" fill="none" xmlns="http://www.w3.org/2000/svg">
<path fill-rule="evenodd" clip-rule="evenodd" d="M71 142C110.212 142 142 110.212 142 71C142 31.7878 110.212 0 71 0C31.7878 0 0 31.7878 0 71C0 110.212 31.7878 142 71 142ZM135 71C135 106.346 106.346 135 71 135C35.6538 135 7 106.346 7 71C7 35.6538 35.6538 7 71 7C106.346 7 135 35.6538 135 71ZM98.7021 34.4085C98.7021 33.4137 98.2649 32.4695 97.505 31.8271C96.7467 31.184 95.7429 30.9074 94.7615 31.071L54.1573 37.8383C52.5246 38.1105 51.329 39.5224 51.329 41.1759V53.9329L51.3275 54.0341L51.329 54.8802L51.3275 86.2991C49.3379 85.1474 47.0256 84.4879 44.5602 84.4879C37.085 84.4879 31.0254 90.5482 31.0254 98.0234C31.0254 105.499 37.085 111.558 44.5602 111.558C52.0354 111.558 58.0949 105.499 58.0949 98.0234V57.7479L91.9332 52.1069V79.5318C89.9421 78.3801 87.6313 77.7206 85.1658 77.7206C77.6907 77.7206 71.6311 83.7809 71.6311 91.2561C71.6311 98.7312 77.6907 104.791 85.1658 104.791C92.641 104.791 98.7006 98.7312 98.7006 91.2561V48.2139L98.7021 48.1128L98.7006 47.2667L98.7021 34.4085Z" fill="white"/>
</svg>
