<svg width="131" height="132" viewBox="0 0 131 132" fill="none" xmlns="http://www.w3.org/2000/svg">
<circle cx="63.5" cy="64.5" r="61.5" fill="#985CFB"/>
<g filter="url(#filter0_d_50_116)">
<path d="M108.6 39.3104C103.741 30.9487 81.7719 29.1749 79.2916 28.9469L76.5075 28.7695V80.1816C75.864 79.6608 75.1783 79.1946 74.4574 78.7879C71.9152 77.5069 69.1403 76.7545 66.2999 76.576C63.4595 76.3974 60.6124 76.7965 57.9301 77.749C47.5025 81.1191 40.7954 90.7477 42.972 99.2108C43.4571 101.001 44.3053 102.671 45.4635 104.119C46.6218 105.566 48.0654 106.759 49.7044 107.623C52.5142 109.124 55.6568 109.891 58.8413 109.853C61.4039 109.851 63.9499 109.44 66.3836 108.637C75.7482 105.622 82.0756 97.5638 81.7213 89.8356V45.2143C84.2523 45.5183 87.7197 46.0505 91.3896 46.836C95.0225 47.3888 98.5128 48.6454 101.665 50.5354C104.196 52.2077 102.627 55.3497 102.501 55.6031C101.291 57.4421 99.8818 59.1416 98.2992 60.6708C97.8389 61.1278 97.5712 61.7442 97.5515 62.3929C97.5318 63.0417 97.7614 63.6732 98.1931 64.1574C98.6248 64.6416 99.2257 64.9415 99.8717 64.9952C100.518 65.049 101.16 64.8525 101.665 64.4463C102.197 63.8635 115.738 51.5743 108.6 39.3104Z" fill="white"/>
</g>
<g filter="url(#filter1_d_50_116)">
<path d="M62.9281 31.2035C59.4319 25.1877 43.6263 23.9116 41.8418 23.7475L39.8387 23.6199V60.6085C39.3758 60.2338 38.8824 59.8984 38.3638 59.6059C36.5348 58.6842 34.5384 58.1429 32.4948 58.0144C30.4513 57.886 28.4029 58.1731 26.4732 58.8584C18.9709 61.283 14.1455 68.2104 15.7115 74.2992C16.0605 75.5869 16.6707 76.7889 17.504 77.8302C18.3374 78.8714 19.376 79.7297 20.5552 80.3516C22.5767 81.4313 24.8376 81.9831 27.1287 81.9558C28.9724 81.9543 30.8041 81.6589 32.555 81.0808C39.2925 78.9114 43.8448 73.1143 43.5898 67.5541V35.4511C45.4108 35.6699 47.9054 36.0527 50.5458 36.6178C53.1595 37.0156 55.6706 37.9197 57.9387 39.2794C59.7597 40.4826 58.6307 42.7431 58.5396 42.9254C57.6692 44.2485 56.6555 45.4712 55.5169 46.5714C55.1857 46.9002 54.9932 47.3437 54.979 47.8104C54.9648 48.2771 55.13 48.7315 55.4406 49.0799C55.7512 49.4282 56.1835 49.644 56.6483 49.6826C57.1131 49.7213 57.575 49.5799 57.9387 49.2877C58.3211 48.8684 68.0631 40.0269 62.9281 31.2035Z" fill="white"/>
</g>
<defs>
<filter id="filter0_d_50_116" x="38.562" y="28.7695" width="76.1113" height="89.085" filterUnits="userSpaceOnUse" color-interpolation-filters="sRGB">
<feFlood flood-opacity="0" result="BackgroundImageFix"/>
<feColorMatrix in="SourceAlpha" type="matrix" values="0 0 0 0 0 0 0 0 0 0 0 0 0 0 0 0 0 0 127 0" result="hardAlpha"/>
<feOffset dy="4"/>
<feGaussianBlur stdDeviation="2"/>
<feComposite in2="hardAlpha" operator="out"/>
<feColorMatrix type="matrix" values="0 0 0 0 0 0 0 0 0 0 0 0 0 0 0 0 0 0 0.25 0"/>
<feBlend mode="normal" in2="BackgroundImageFix" result="effect1_dropShadow_50_116"/>
<feBlend mode="normal" in="SourceGraphic" in2="effect1_dropShadow_50_116" result="shape"/>
</filter>
<filter id="filter1_d_50_116" x="11.4165" y="23.6199" width="57.0029" height="66.3369" filterUnits="userSpaceOnUse" color-interpolation-filters="sRGB">
<feFlood flood-opacity="0" result="BackgroundImageFix"/>
<feColorMatrix in="SourceAlpha" type="matrix" values="0 0 0 0 0 0 0 0 0 0 0 0 0 0 0 0 0 0 127 0" result="hardAlpha"/>
<feOffset dy="4"/>
<feGaussianBlur stdDeviation="2"/>
<feComposite in2="hardAlpha" operator="out"/>
<feColorMatrix type="matrix" values="0 0 0 0 0 0 0 0 0 0 0 0 0 0 0 0 0 0 0.25 0"/>
<feBlend mode="normal" in2="BackgroundImageFix" result="effect1_dropShadow_50_116"/>
<feBlend mode="normal" in="SourceGraphic" in2="effect1_dropShadow_50_116" result="shape"/>
</filter>
</defs>
</svg>
