<svg width="134" height="80" viewBox="0 0 134 80" fill="none" xmlns="http://www.w3.org/2000/svg">
<path d="M129.216 32.6254L76.7651 1.24416C75.4675 0.454627 73.9817 0.0280505 72.4629 0.00899836C70.9441 -0.0100537 69.4481 0.379118 68.1311 1.13585C66.7021 1.96798 65.5188 3.16345 64.7013 4.60087C63.8838 6.03828 63.4613 7.66643 63.4767 9.31997V31.273L13.2889 1.23583C11.9913 0.446296 10.5055 0.0197195 8.98667 0.000667399C7.46788 -0.0183847 5.97184 0.370787 4.65485 1.12752C3.22587 1.95965 2.04255 3.15512 1.22507 4.59253C0.407596 6.02995 -0.0149221 7.6581 0.000429981 9.31164V70.6856C-0.0154141 72.3396 0.40687 73.9683 1.22437 75.4063C2.04187 76.8442 3.22546 78.0401 4.65485 78.8725C5.97184 79.6292 7.46788 80.0184 8.98667 79.9993C10.5055 79.9803 11.9913 79.5537 13.2889 78.7642L63.4767 48.7132V70.6745C63.4588 72.3304 63.8802 73.9614 64.6978 75.4015C65.5154 76.8415 66.7 78.0392 68.1311 78.8725C69.4481 79.6292 70.9441 80.0184 72.4629 79.9993C73.9817 79.9803 75.4675 79.5537 76.7651 78.7642L129.216 47.3829C130.463 46.6018 131.491 45.5167 132.204 44.2295C132.916 42.9422 133.29 41.495 133.29 40.0236C133.29 38.5522 132.916 37.105 132.204 35.8177C131.491 34.5305 130.463 33.4454 129.216 32.6643V32.6254Z" fill="#B6BEC4"/>
</svg>
