<svg width="103" height="80" viewBox="0 0 103 80" fill="none" xmlns="http://www.w3.org/2000/svg">
<path d="M54.1153 0.508024C52.0491 -0.424082 49.6201 -0.0528921 47.9276 1.45181L23.6799 22.9932H8.62395C3.86101 22.9932 0 26.8542 0 31.4554V48.5416C0 53.3046 3.86101 57.0039 8.62395 57.0039H23.6871L47.924 78.5458C48.9763 79.4817 50.3354 79.9991 51.7437 80C52.5598 79.9998 53.3664 79.8256 54.1099 79.489C56.1761 78.5627 57.4912 76.5138 57.4912 74.25V5.74528C57.3313 3.48329 56.1814 1.4333 54.1153 0.508024ZM92.3302 40.0794L100.78 31.6297C102.464 29.9453 102.464 27.2171 100.78 25.5319C99.0955 23.8466 96.3672 23.8475 94.682 25.5319L86.2395 34.1504L77.6335 25.6882C75.9492 24.0038 73.2209 24.0038 71.5357 25.6882C69.8504 27.3725 69.8513 30.1008 71.5357 31.786L79.9853 40.2357L71.5357 48.6854C69.8513 50.3697 69.8513 53.0979 71.5357 54.7832C73.2197 56.4672 75.9483 56.4687 77.6335 54.7832L86.2395 46.3317L94.6892 54.7814C96.3732 56.4654 99.1018 56.4669 100.787 54.7814C102.471 53.097 102.471 50.3688 100.787 48.6836L92.3302 40.0794Z" fill="#B6BEC4"/>
</svg>
