<svg width="113" height="80" viewBox="0 0 113 80" fill="none" xmlns="http://www.w3.org/2000/svg">
<path d="M72.3861 27.0175C70.5825 25.5554 67.9282 25.8127 66.465 27.6143C64.9903 29.4108 65.2534 32.0617 67.0571 33.5336C69.0352 35.1578 70.1755 37.5087 70.1755 39.8421C70.1755 42.328 69.0352 44.6824 67.051 46.3035C65.2474 47.7764 64.9843 50.4263 66.4589 52.2228C67.2867 53.2414 68.4975 53.767 69.715 53.767C70.6525 53.767 71.601 53.4549 72.3799 52.8198C76.3334 49.7368 78.5966 45.0175 78.5966 39.8421C78.5966 34.6666 76.3334 30.2456 72.3861 27.0175ZM83.0001 14.0701C81.2071 12.608 78.5545 12.8599 77.0738 14.6561C75.599 16.4526 75.8622 19.1034 77.6604 20.5754C83.6141 25.2806 87.0176 32.5087 87.0176 39.8421C87.0176 47.1754 83.6071 54.2456 77.665 59.2631C75.8668 60.7361 75.6036 63.3859 77.0783 65.1824C77.4732 65.6641 77.9702 66.0521 78.5333 66.3182C79.0964 66.5843 79.7116 66.722 80.3345 66.7212C81.2775 66.7212 82.2205 66.4091 83.0047 65.7684C90.9124 59.4561 95.4387 50 95.4387 39.8421C95.4387 29.6841 90.9124 20.5262 83.0001 14.0701ZM93.7545 0.947269C91.9615 -0.514838 89.3089 -0.257469 87.8282 1.53323C86.3534 3.32973 86.6166 5.98061 88.4148 7.45254C98.2282 15.4911 103.86 27.3508 103.86 39.8421C103.86 52.3333 98.2299 64.3509 88.4106 72.386C86.6124 73.8589 86.3492 76.5088 87.824 78.3053C88.6492 79.4737 89.8598 80 91.0878 80C92.0308 80 92.9738 79.6879 93.758 79.0472C105.526 69.4035 112.281 55.1754 112.281 39.8421C112.281 24.5087 105.526 10.5859 93.7545 0.947269V0.947269ZM52.8422 1.22446C50.8246 0.315513 48.4544 0.684812 46.8018 2.15253L23.1228 23.1754H8.42106C3.77018 23.1754 0 26.9438 0 31.5894V48.4175C0 53.0631 3.77018 56.8316 8.42106 56.8316H23.1299L46.7965 77.8491C47.8262 78.7588 49.1524 79.2616 50.5264 79.2632C51.305 79.2632 52.0981 79.0998 52.8352 78.7658C53.8199 78.3261 54.6561 77.6105 55.2427 76.7055C55.8292 75.8006 56.1411 74.7451 56.1404 73.6667V6.33675C56.1404 4.13148 54.8597 2.12797 52.8422 1.22446Z" fill="#B6BEC4"/>
</svg>
