<svg width="80" height="80" viewBox="0 0 80 80" fill="none" xmlns="http://www.w3.org/2000/svg">
<path d="M42.4545 0.842747C41.7524 0.296547 40.8882 0 39.9986 0C39.109 0 38.2448 0.296547 37.5427 0.842747L4.63184 26.4419C3.18853 27.5646 2.02091 29.0024 1.21815 30.6453C0.415391 32.2883 -0.00126576 34.0929 2.88843e-06 35.9215V72.0003C2.88843e-06 74.1219 0.842828 76.1567 2.34307 77.6569C3.84331 79.1572 5.87807 80 7.99972 80H23.9992C26.1208 80 28.1556 79.1572 29.6558 77.6569C31.1561 76.1567 31.9989 74.1219 31.9989 72.0003V48.0011H47.9983V72.0003C47.9983 74.1219 48.8412 76.1567 50.3414 77.6569C51.8416 79.1572 53.8764 80 55.9981 80H71.9975C74.1192 80 76.1539 79.1572 77.6541 77.6569C79.1544 76.1567 79.9972 74.1219 79.9972 72.0003V35.9215C79.9975 34.0923 79.5796 32.2872 78.7755 30.6442C77.9713 29.0012 76.8022 27.5638 75.3574 26.4419L42.4545 0.842747V0.842747Z" fill="#B6BEC4"/>
</svg>
