<svg width="81" height="80" viewBox="0 0 81 80" fill="none" xmlns="http://www.w3.org/2000/svg">
<path d="M73.681 26.7661C71.8452 25.2761 69.1433 25.5384 67.654 27.3743C66.1529 29.2048 66.4207 31.9049 68.2567 33.4067C70.2702 35.07 71.4309 37.4629 71.4309 39.9987C71.4309 42.5327 70.2702 44.931 68.2504 46.5828C66.4147 48.084 66.1468 50.7848 67.6478 52.6152C68.4905 53.6531 69.7228 54.1888 70.9621 54.1888C71.9165 54.1888 72.8819 53.8708 73.6747 53.2234C77.699 49.9276 80.0026 45.1239 80.0026 39.9987C80.0026 34.8735 77.699 30.0698 73.681 26.7661ZM53.7875 0.504542C51.7338 -0.421739 49.3213 -0.0519053 47.6391 1.44368L23.5365 22.8553H8.57171C3.83763 22.8553 0 26.6929 0 31.2663V48.249C0 52.983 3.83763 56.66 8.57171 56.66H23.5436L47.6337 78.0714C48.698 79.5 50.0552 80 51.4303 80C52.2228 80 53.0301 79.8337 53.7803 79.4934C55.8411 78.5714 57.1447 76.5356 57.1447 74.2855V5.71186C57.1447 3.46357 55.8411 1.26528 53.7875 0.504542Z" fill="#B6BEC4"/>
</svg>
