<svg width="98" height="80" viewBox="0 0 98 80" fill="none" xmlns="http://www.w3.org/2000/svg">
<path fill-rule="evenodd" clip-rule="evenodd" d="M45.5737 2.39088C46.5669 2.80265 47.4156 3.49967 48.0127 4.3938C48.6098 5.28792 48.9283 6.33901 48.928 7.41415V72.6515C48.9278 73.7266 48.6088 74.7774 48.0114 75.6712C47.4141 76.565 46.5651 77.2616 45.5718 77.673C44.5786 78.0844 43.4857 78.1921 42.4313 77.9824C41.3769 77.7727 40.4083 77.2551 39.648 76.4951L19.4951 56.3422H5.43645C3.99461 56.3422 2.61183 55.7694 1.5923 54.7499C0.572766 53.7303 0 52.3476 0 50.9057V29.1599C0 27.7181 0.572766 26.3353 1.5923 25.3158C2.61183 24.2963 3.99461 23.7235 5.43645 23.7235H19.4951L39.648 3.57058C40.4083 2.80985 41.3771 2.2917 42.4319 2.08171C43.4867 1.87172 44.5801 1.97931 45.5737 2.39088ZM74.2455 1.59172C75.265 0.572541 76.6476 0 78.0891 0C79.5307 0 80.9132 0.572541 81.9327 1.59172C86.9876 6.63485 90.9965 12.6269 93.7291 19.2238C96.4618 25.8207 97.8642 32.8924 97.856 40.0328C97.8642 47.1733 96.4618 54.245 93.7291 60.8419C90.9965 67.4387 86.9876 73.4308 81.9327 78.4739C80.9073 79.4642 79.5341 80.0122 78.1087 79.9998C76.6832 79.9874 75.3197 79.4157 74.3118 78.4077C73.3038 77.3998 72.732 76.0362 72.7197 74.6108C72.7073 73.1854 73.2552 71.8121 74.2455 70.7868C78.291 66.7533 81.4991 61.9596 83.6851 56.6817C85.8711 51.4037 86.9919 45.7456 86.9831 40.0328C86.9922 34.32 85.8715 28.6618 83.6855 23.3838C81.4995 18.1058 78.2913 13.3122 74.2455 9.27885C73.2264 8.25937 72.6538 6.87683 72.6538 5.43528C72.6538 3.99373 73.2264 2.6112 74.2455 1.59172ZM58.8658 16.966C59.3707 16.4605 59.9703 16.0595 60.6303 15.786C61.2903 15.5124 61.9977 15.3715 62.7121 15.3715C63.4265 15.3715 64.134 15.5124 64.794 15.786C65.4539 16.0595 66.0535 16.4605 66.5584 16.966C69.5913 19.9923 71.9964 23.5879 73.6356 27.5465C75.2748 31.505 76.1158 35.7483 76.1102 40.0328C76.1155 44.3173 75.2744 48.5606 73.6352 52.519C71.996 56.4775 69.5911 60.0732 66.5584 63.0997C65.5383 64.1198 64.1547 64.6928 62.7121 64.6928C61.2695 64.6928 59.8859 64.1198 58.8658 63.0997C57.8457 62.0796 57.2726 60.696 57.2726 59.2534C57.2726 57.8107 57.8457 56.4272 58.8658 55.4071C60.8891 53.3911 62.4937 50.9949 63.5872 48.3564C64.6807 45.7178 65.2415 42.889 65.2373 40.0328C65.2418 37.1766 64.6811 34.3477 63.5876 31.7091C62.4941 29.0705 60.8894 26.6743 58.8658 24.6586C58.3604 24.1537 57.9594 23.5541 57.6858 22.8941C57.4122 22.2341 57.2714 21.5267 57.2714 20.8123C57.2714 20.0978 57.4122 19.3904 57.6858 18.7304C57.9594 18.0705 58.3604 17.4709 58.8658 16.966Z" fill="#B6BEC4"/>
</svg>
