<svg width="72" height="80" viewBox="0 0 72 80" fill="none" xmlns="http://www.w3.org/2000/svg">
<path d="M13.3333 0C16.8696 0 20.2609 1.40476 22.7614 3.90524C25.2619 6.40573 26.6667 9.79711 26.6667 13.3333V66.6667C26.6667 70.2029 25.2619 73.5943 22.7614 76.0948C20.2609 78.5952 16.8696 80 13.3333 80C9.79711 80 6.40573 78.5952 3.90524 76.0948C1.40476 73.5943 7.45203e-08 70.2029 0 66.6667V13.3333C0 9.79711 1.40476 6.40573 3.90524 3.90524C6.40573 1.40476 9.79711 0 13.3333 0V0ZM57.7778 0C61.314 0 64.7054 1.40476 67.2059 3.90524C69.7064 6.40573 71.1111 9.79711 71.1111 13.3333V66.6667C71.1111 70.2029 69.7064 73.5943 67.2059 76.0948C64.7054 78.5952 61.314 80 57.7778 80C54.2416 80 50.8502 78.5952 48.3497 76.0948C45.8492 73.5943 44.4444 70.2029 44.4444 66.6667V13.3333C44.4444 9.79711 45.8492 6.40573 48.3497 3.90524C50.8502 1.40476 54.2416 0 57.7778 0Z" fill="#B6BEC4"/>
</svg>
