<svg width="773" height="38" viewBox="0 0 773 38" fill="none" xmlns="http://www.w3.org/2000/svg">
<path d="M1 18V20M5.14516 17V21M9.29032 15V23M13.4355 11V27M17.5806 7V31M21.7258 1V37M25.871 9V29M30.0161 10V28M34.1613 13V25M38.3065 16V22M42.4516 18V20M46.5968 18V20M50.7419 18V20M54.8871 18V20M59.0323 14V24M63.1774 9V29M67.3226 11V27M71.4677 7V31M75.6129 1V37M79.7581 4V34M83.9032 10V28M88.0484 13V25M92.1935 16V22M96.3387 18V20M100.484 18V20M104.629 18V20M108.774 18V20M112.919 17V21M117.065 15V23M121.21 11V27M125.355 7V31M129.5 1V37M133.645 9V29M137.79 9V29M141.935 4V34M146.081 1V37M150.226 9V29M154.371 15V23M158.516 15V23M162.661 15V23M166.806 14V24M170.952 9V29M175.097 1V37M179.242 4V34M183.387 1V37M187.532 4V34M191.677 1V37M195.823 9V29M199.968 15V23M204.113 18V20M208.258 18V20M212.403 14V24M216.548 9V29M220.694 14V24M224.839 4V34M228.984 1V37M233.129 4V34M237.274 1V37M241.419 9V29M245.565 9V29M249.71 14V24M253.855 16V22M258 18V20" stroke="url(#paint0_linear_665_198)" stroke-width="1.5" stroke-linecap="round"/>
<path d="M258 18V20M262.145 17V21M266.29 15V23M270.435 11V27M274.581 7V31M278.726 1V37M282.871 9V29M287.016 10V28M291.161 13V25M295.306 16V22M299.452 18V20M303.597 18V20M307.742 18V20M311.887 18V20M316.032 14V24M320.177 9V29M324.323 11V27M328.468 7V31M332.613 1V37M336.758 4V34M340.903 10V28M345.048 13V25M349.194 16V22M353.339 18V20M357.484 18V20M361.629 18V20M365.774 18V20M369.919 17V21M374.065 15V23M378.21 11V27M382.355 7V31M386.5 1V37M390.645 9V29M394.79 9V29M398.935 4V34M403.081 1V37M407.226 9V29M411.371 15V23M415.516 15V23M419.661 15V23M423.806 14V24M427.952 9V29M432.097 1V37M436.242 4V34M440.387 1V37M444.532 4V34M448.677 1V37M452.823 9V29M456.968 15V23M461.113 18V20M465.258 18V20M469.403 14V24M473.548 9V29M477.694 14V24M481.839 4V34M485.984 1V37M490.129 4V34M494.274 1V37M498.419 9V29M502.565 9V29M506.71 14V24M510.855 16V22M515 18V20" stroke="url(#paint1_linear_665_198)" stroke-width="1.5" stroke-linecap="round"/>
<path d="M515 18V20M519.145 17V21M523.29 15V23M527.435 11V27M531.581 7V31M535.726 1V37M539.871 9V29M544.016 10V28M548.161 13V25M552.306 16V22M556.452 18V20M560.597 18V20M564.742 18V20M568.887 18V20M573.032 14V24M577.177 9V29M581.323 11V27M585.468 7V31M589.613 1V37M593.758 4V34M597.903 10V28M602.048 13V25M606.194 16V22M610.339 18V20M614.484 18V20M618.629 18V20M622.774 18V20M626.919 17V21M631.065 15V23M635.21 11V27M639.355 7V31M643.5 1V37M647.645 9V29M651.79 9V29M655.935 4V34M660.081 1V37M664.226 9V29M668.371 15V23M672.516 15V23M676.661 15V23M680.806 14V24M684.952 9V29M689.097 1V37M693.242 4V34M697.387 1V37M701.532 4V34M705.677 1V37M709.823 9V29M713.968 15V23M718.113 18V20M722.258 18V20M726.403 14V24M730.548 9V29M734.694 14V24M738.839 4V34M742.984 1V37M747.129 4V34M751.274 1V37M755.419 9V29M759.565 9V29M763.71 14V24M767.855 16V22M772 18V20" stroke="url(#paint2_linear_665_198)" stroke-width="1.5" stroke-linecap="round"/>
<defs>
<linearGradient id="paint0_linear_665_198" x1="15.5081" y1="37" x2="258" y2="37" gradientUnits="userSpaceOnUse">
<stop stop-color="#00E9FF"/>
<stop offset="1" stop-color="#FF00D8"/>
</linearGradient>
<linearGradient id="paint1_linear_665_198" x1="272.508" y1="37" x2="515" y2="37" gradientUnits="userSpaceOnUse">
<stop offset="0.200097" stop-color="#FF00D8"/>
<stop offset="1" stop-color="#00E9FF"/>
</linearGradient>
<linearGradient id="paint2_linear_665_198" x1="529.508" y1="37" x2="772" y2="37" gradientUnits="userSpaceOnUse">
<stop stop-color="#00E9FF"/>
<stop offset="1" stop-color="#FF00D8"/>
</linearGradient>
</defs>
</svg>
