<svg width="134" height="80" viewBox="0 0 134 80" fill="none" xmlns="http://www.w3.org/2000/svg">
<path d="M4.07398 32.6254L56.5251 1.24416C57.8227 0.454627 59.3085 0.0280505 60.8273 0.00899836C62.3461 -0.0100537 63.8421 0.379118 65.1591 1.13585C66.5881 1.96798 67.7714 3.16345 68.5889 4.60087C69.4064 6.03828 69.8289 7.66643 69.8135 9.31997V31.273L120.001 1.23583C121.299 0.446296 122.785 0.0197195 124.304 0.000667399C125.822 -0.0183847 127.318 0.370787 128.635 1.12752C130.064 1.95965 131.248 3.15512 132.065 4.59253C132.883 6.02995 133.305 7.6581 133.29 9.31164V70.6856C133.306 72.3396 132.884 73.9685 132.066 75.4065C131.249 76.8445 130.065 78.0403 128.635 78.8725C127.318 79.6292 125.822 80.0184 124.304 79.9993C122.785 79.9803 121.299 79.5537 120.001 78.7642L69.8135 48.7132V70.6745C69.8316 72.3304 69.4104 73.9616 68.5928 75.4017C67.7752 76.8418 66.5904 78.0394 65.1591 78.8725C63.8421 79.6292 62.3461 80.0184 60.8273 79.9993C59.3085 79.9803 57.8227 79.5537 56.5251 78.7642L4.07398 47.3829C2.82707 46.6018 1.79907 45.5167 1.08646 44.2295C0.37385 42.9422 0 41.495 0 40.0236C0 38.5522 0.37385 37.105 1.08646 35.8177C1.79907 34.5305 2.82707 33.4454 4.07398 32.6643V32.6254Z" fill="#B6BEC4"/>
</svg>
