<svg width="76" height="80" viewBox="0 0 76 80" fill="none" xmlns="http://www.w3.org/2000/svg">
<path d="M0 29.3694V6.18033C0.176933 2.63727 3.02978 0.0426666 6.17566 0H29.3472C33.0736 0.231733 37.5228 1.6938 39.9123 4.39266L74.2103 42.5986C76.3647 45.328 76.4257 49.1052 74.2103 51.3838L47.3639 78.2504C44.7316 80.6336 40.8042 80.5322 38.5853 78.2504L4.38928 39.9424C1.89643 36.9962 0.034374 33.0572 0 29.3694ZM10.0546 15.9872C10.2007 19.4345 12.918 21.9225 15.9751 21.9633C19.4298 21.8089 21.9058 19.0532 21.9467 15.9872C21.7946 12.5283 19.0269 10.1023 15.9751 10.0622C12.5287 10.2063 10.0945 12.9397 10.0546 15.9872V15.9872Z" fill="#B6BEC4"/>
</svg>
